<?xml version="1.0" encoding="UTF-8" standalone="no"?>
<!-- Created with Inkscape (http://www.inkscape.org/) -->

<svg
   xmlns:dc="http://purl.org/dc/elements/1.1/"
   xmlns:cc="http://creativecommons.org/ns#"
   xmlns:rdf="http://www.w3.org/1999/02/22-rdf-syntax-ns#"
   xmlns:svg="http://www.w3.org/2000/svg"
   xmlns="http://www.w3.org/2000/svg"
   xmlns:xlink="http://www.w3.org/1999/xlink"
   xmlns:sodipodi="http://sodipodi.sourceforge.net/DTD/sodipodi-0.dtd"
   xmlns:inkscape="http://www.inkscape.org/namespaces/inkscape"
   width="1260"
   height="765"
   id="svg3251"
   version="1.1"
   inkscape:version="0.48.5 r10040"
   sodipodi:docname="triptico.svg">
  <defs
     id="defs3253" />
  <sodipodi:namedview
     id="base"
     pagecolor="#ffffff"
     bordercolor="#666666"
     borderopacity="1.0"
     inkscape:pageopacity="0.0"
     inkscape:pageshadow="2"
     inkscape:zoom="1.4142136"
     inkscape:cx="222.52241"
     inkscape:cy="585.60242"
     inkscape:document-units="px"
     inkscape:current-layer="layer1"
     showgrid="false"
     inkscape:window-width="1366"
     inkscape:window-height="716"
     inkscape:window-x="0"
     inkscape:window-y="0"
     inkscape:window-maximized="1" />
  <metadata
     id="metadata3256">
    <rdf:RDF>
      <cc:Work
         rdf:about="">
        <dc:format>image/svg+xml</dc:format>
        <dc:type
           rdf:resource="http://purl.org/dc/dcmitype/StillImage" />
        <dc:title></dc:title>
      </cc:Work>
    </rdf:RDF>
  </metadata>
  <g
     inkscape:label="Layer 1"
     inkscape:groupmode="layer"
     id="layer1"
     transform="translate(0,-287.36218)">
    <g
       id="g4154"
       transform="matrix(1.1758421,0,0,1.1758421,-906.14042,-219.04851)"
       style="stroke-width:0.93974757;stroke-miterlimit:4;stroke-dasharray:none" />
    <g
       id="g4299"
       style="stroke-width:1;stroke-miterlimit:4;stroke-dasharray:none">
      <path
         style="stroke-width:0.85045433;stroke-miterlimit:4;stroke-dasharray:none;fill:#ffffff;fill-opacity:1;stroke:#000000;stroke-linecap:round;stroke-linejoin:round;stroke-opacity:1"
         d="m 834.95629,481.24224 c -0.0794,-0.0793 -0.13404,-2.09237 -0.12147,-4.47345 l 0.023,-4.32923 -5.44513,-0.0547 -5.44513,-0.0547 -0.0877,-0.76797 c -0.0482,-0.42238 -0.0833,-2.41081 -0.0781,-4.41871 l 0.01,-3.65075 -3.65446,0 -3.65446,-2e-5 0,-4.31918 0,-4.31919 3.70593,0 3.70593,0 0,-4.42203 0,-4.42203 5.45595,0 c 4.22103,0 5.4587,-0.0582 5.4681,-0.2571 0.007,-0.1414 10e-4,-1.98779 -0.0113,-4.10308 -0.0127,-2.1153 0.0383,-4.17463 0.1137,-4.57629 l 0.13715,-0.73029 4.08264,0 c 2.37938,0 4.13347,0.0821 4.20448,0.19696 0.16827,0.27197 0.20648,8.6176 0.0403,8.78369 -0.0739,0.0738 -0.0311,0.25827 0.0951,0.41009 0.18161,0.2186 1.40169,0.27602 5.86592,0.27602 l 5.63663,0 0,4.42203 0,4.42203 3.37507,0 c 2.65352,0 3.39802,0.0598 3.48239,0.27935 0.23225,0.60462 0.16101,7.78059 -0.0801,8.07085 -0.30393,0.36585 -6.47903,0.43234 -6.2532,0.0673 0.0751,-0.1214 -0.06,-0.0984 -0.30049,0.0514 -0.42314,0.26357 -0.43657,0.4053 -0.42029,4.43581 0.01,2.28993 -0.0408,4.2567 -0.1113,4.3706 -0.0808,0.13073 -2.16987,0.2071 -5.6627,0.2071 -3.46764,0 -5.58211,0.0767 -5.66185,0.20567 -0.0701,0.11306 -0.0523,0.20569 0.0393,0.20569 0.0917,10e-6 0.16657,1.82796 0.16657,4.0621 0,2.23415 -0.075,4.17777 -0.16657,4.31917 -0.12401,0.1914 -1.2069,0.2571 -4.23779,0.2571 -2.23918,0 -4.13621,-0.0649 -4.21561,-0.14422 z m 13.45826,-12.37339 c 1.54255,-0.96101 2.07795,-2.0246 2.29222,-4.55349 0.0911,-1.07465 0.25008,-2.64807 0.35337,-3.49648 0.10325,-0.84841 0.29729,-2.76058 0.43112,-4.24924 0.29279,-3.25708 0.13842,-4.06971 -0.97719,-5.14246 -1.38057,-1.32761 -1.17756,-1.30356 -10.99743,-1.3023 -9.17881,10e-4 -10.10974,0.0726 -10.93286,0.83868 -0.23299,0.21682 -0.48312,0.39423 -0.55587,0.39423 -0.0728,0 -0.2636,0.25453 -0.42409,0.5656 -0.1605,0.31109 -0.38461,0.63203 -0.49803,0.71321 -0.24885,0.1781 -0.17848,4.856 0.078,5.18245 0.0965,0.12281 0.28714,1.8429 0.42378,3.82253 0.22659,3.2828 0.66189,5.75891 1.01242,5.75891 0.0758,0 0.22935,0.19724 0.34114,0.43832 0.11172,0.24104 0.61056,0.66377 1.1084,0.93935 1.01755,0.56327 1.85848,0.56905 7.13346,0.049 2.67219,-0.26343 4.70837,-0.16635 8.12334,0.38725 1.33238,0.21601 2.37395,0.0995 3.08827,-0.34558 z"
         id="path4087"
         inkscape:connector-curvature="0"
         sodipodi:nodetypes="cscccsscccccccccsccscsscsscccssssssssccssscssssssssssssssssss"
         transform="matrix(1.1758421,0,0,1.1758421,-906.14042,-219.04851)" />
      <path
         style="stroke-width:0.85045433;stroke-miterlimit:4;stroke-dasharray:none;fill:#ffffff;fill-opacity:1;stroke:#000000;stroke-linecap:round;stroke-linejoin:round;stroke-opacity:1"
         d="m 832.56141,467.03935 c -2.38302,-1.08214 -2.01969,-4.02716 -2.24559,-6.16692 -0.0664,-2.42118 -1.57748,-5.63746 0.54767,-7.53454 1.82405,-1.30537 4.20372,-0.47153 6.27989,-0.74381 3.23936,0.0182 6.50733,-0.11588 9.72676,0.22843 1.61733,0.63363 2.51752,2.6691 1.88324,4.28732 -0.43299,2.56227 -0.57498,5.15423 -1.00561,7.71915 -0.23657,2.17884 -2.7926,2.6947 -4.55068,2.12056 -3.17269,-0.48771 -6.41327,-0.31612 -9.55361,0.26053 -0.36608,-0.007 -0.73308,-0.0577 -1.08207,-0.17072 z m 9.48987,-3.15928 c 0.17468,-0.53814 -0.0172,-1.34995 -0.44451,-1.13877 -1.8064,0.89277 -5.04474,-0.11546 -4.95187,0.0793 0.14758,0.32111 -0.0473,0.75213 0.21496,0.94969 1.29934,0.97881 4.02612,0.43205 5.18142,0.10981 z m -6.0826,-3.96587 c 1.98888,-1.08341 1.46335,-4.32837 -0.68676,-4.88515 -2.35155,-0.81621 -4.63384,2.24605 -3.06102,4.21525 0.83107,1.17003 2.57162,1.51016 3.74778,0.6699 z m 9.89368,0.0384 c 1.91949,-1.08527 1.51848,-4.31402 -0.68463,-4.79058 -2.48562,-0.91684 -4.70804,2.34994 -2.92481,4.29278 0.87271,1.14046 2.44753,1.22562 3.60944,0.4978 z"
         id="path4089"
         inkscape:connector-curvature="0"
         sodipodi:nodetypes="cccccccccccscsccccccccc"
         transform="matrix(1.1758421,0,0,1.1758421,-906.14042,-219.04851)" />
      <path
         inkscape:connector-curvature="0"
         id="path4095"
         d="m 792.0689,495.88601 c -0.0862,-1.16308 0.25549,-2.92908 -0.98742,-3.52723 -1.30873,-0.0349 -2.90454,-0.69226 -4.04488,-0.009 -0.83487,1.34217 -0.50697,3.05226 -1.02097,4.51563 -0.28819,1.4752 -2.15386,0.99664 -3.24408,1.01335 -1.08008,-1.10517 0.32925,-2.68821 0.32742,-4.01108 1.1488,-4.80362 2.28497,-9.64777 2.54306,-14.59702 -0.81267,-1.31215 -2.64862,0.42083 -3.59392,-0.79381 -0.442,-1.2177 -0.6432,-2.93483 0.10396,-4.04175 1.66059,-0.40711 3.49228,0.13929 5.19667,0.332 1.75165,0.37124 3.55003,0.42594 5.31538,0.6019 1.72108,0.47425 2.48092,2.31427 2.44038,3.9622 0.21594,5.90209 0.68922,11.81132 0.38097,17.71933 -0.21888,1.50696 -2.34892,1.32323 -3.38426,0.99529 -0.1178,-0.67569 0.015,-1.44531 -0.0323,-2.15984 z m 0.29116,-6.63285 c -0.25973,-3.21369 1.07548,-6.54307 -0.0817,-9.66565 -0.8067,-1.36522 -2.91463,-0.75366 -2.80525,0.87129 -0.50611,2.63087 -0.84083,5.32087 -0.66602,8.00377 0.65713,1.06817 2.33561,1.6153 3.42501,0.96502 l 0.12798,-0.17443 -2e-5,0 z"
         style="stroke-width:0.85045433;stroke-miterlimit:4;stroke-dasharray:none;fill:#ffffff;fill-opacity:1;stroke:#000000;stroke-linecap:round;stroke-linejoin:round;stroke-opacity:1"
         transform="matrix(1.1758421,0,0,1.1758421,-906.14042,-219.04851)" />
      <path
         inkscape:connector-curvature="0"
         id="path4097"
         d="m 805.75366,497.21359 c -0.80199,-0.5669 -0.13731,-1.89223 -0.36415,-2.77401 -0.0168,-1.6815 0.0541,-3.37703 -0.0915,-5.04917 -0.38994,-0.91918 -1.57098,-0.68457 -2.36231,-0.61956 -0.98615,0.0975 -2.1476,0.59391 -1.75033,1.78279 0.0242,1.91561 0.0393,3.83599 0.22861,5.74477 -0.20187,1.10944 -1.59098,0.83481 -2.41766,0.9031 -1.23569,0.34799 -1.74091,-0.77721 -1.57852,-1.81793 -0.23343,-3.27693 -0.46425,-6.55655 -0.66278,-9.83431 0.26752,-1.00792 1.56277,-0.53175 2.31064,-0.64558 0.77913,0.0442 2.31272,-0.23737 1.8908,1.00936 -0.007,1.01791 1.50187,0.37088 2.13113,0.30388 1.18009,-0.10241 2.424,-0.19864 3.58589,0.0959 1.5006,0.68054 1.95213,2.50795 1.91614,4.0201 0.0378,2.18766 0.0814,4.3755 0.1156,6.56344 -0.9351,0.36336 -1.96188,0.41776 -2.95155,0.31725 z"
         style="stroke-width:0.85045433;stroke-miterlimit:4;stroke-dasharray:none;fill:#ffffff;fill-opacity:1;stroke:#000000;stroke-linecap:round;stroke-linejoin:round;stroke-opacity:1"
         transform="matrix(1.1758421,0,0,1.1758421,-906.14042,-219.04851)" />
      <path
         inkscape:connector-curvature="0"
         id="path4099"
         d="m 813.61513,497.4858 c -0.94612,-0.25415 -2.08412,-0.3915 -2.57008,-1.38189 -1.0145,-1.48664 -1.13134,-3.36805 -1.06791,-5.1134 0.0991,-1.2172 -0.48577,-2.37355 -0.26203,-3.58794 0.13905,-0.91249 0.42047,-1.87239 1.0274,-2.57756 1.33396,-1.06664 3.10534,-1.23173 4.74935,-1.15065 1.39226,0.0151 2.83328,-0.12003 4.16147,0.36912 1.23302,0.12897 1.4992,1.49745 1.51708,2.51591 0.16497,1.07016 0.19953,2.47168 -1.27511,2.16761 -1.39272,0.40343 -0.93803,-1.47493 -1.69933,-1.96237 -1.22453,-0.44806 -2.57039,-0.37526 -3.84927,-0.24972 -1.13281,0.32321 -1.12518,1.73882 -0.98179,2.68664 0.38581,1.16712 0.10914,2.40398 0.4491,3.57132 0.0319,0.93768 0.387,2.27317 1.61415,2.07776 1.00329,-0.12761 2.22025,0.32999 3.07802,-0.27508 0.55093,-0.67309 0.19693,-2.10495 1.45227,-2.03188 1.0352,-0.25173 2.20898,0.28756 1.8044,1.5005 0.0514,1.04248 -0.15205,2.21972 -0.97955,2.93372 -1.52263,0.8789 -3.35502,0.56657 -5.03507,0.66 -0.71316,-0.004 -1.42833,-0.0376 -2.1331,-0.15209 z"
         style="stroke-width:0.85045433;stroke-miterlimit:4;stroke-dasharray:none;fill:#ffffff;fill-opacity:1;stroke:#000000;stroke-linecap:round;stroke-linejoin:round;stroke-opacity:1"
         transform="matrix(1.1758421,0,0,1.1758421,-906.14042,-219.04851)" />
      <path
         inkscape:connector-curvature="0"
         id="path4101"
         d="m 825.11616,497.77666 c -0.89339,-0.35886 -1.74118,-0.99868 -1.88748,-2.01911 -0.42768,-1.95643 -0.54925,-3.96734 -0.62873,-5.96507 -0.34319,-0.94018 -0.34061,-2.01498 -0.11041,-2.97761 0.2697,-1.00525 0.80904,-2.16842 1.98025,-2.28401 1.44557,-0.30542 2.93934,-0.12171 4.40617,-0.2066 1.02873,0.0675 2.15243,-0.13979 3.11229,0.2742 0.84603,0.48065 1.23861,1.46115 1.46135,2.35181 -0.0487,0.90018 0.38485,1.97323 -0.15836,2.89218 -0.33347,0.9725 -1.23799,1.71417 -2.29278,1.66337 -1.29135,0.12174 -2.59774,0.0533 -3.88093,0.26556 -0.81624,0.60355 -0.2164,1.76843 -0.14053,2.5823 0.45103,1.0331 1.71037,0.77121 2.61608,0.80532 1.14278,0.2835 1.41528,-0.83769 1.46774,-1.71643 0.42727,-0.94525 1.65606,-0.52074 2.46666,-0.56773 1.17792,0.0946 0.70762,1.63719 0.60788,2.40431 -0.24627,1.10974 -0.85488,2.45021 -2.14413,2.56327 -2.26783,0.10519 -4.55248,0.14347 -6.81975,-0.0345 l -0.0519,-0.0295 c -0.0179,-0.002 6e-4,-0.002 -0.003,-0.002 z m 4.40032,-8.30857 c 0.76173,-0.50038 0.69162,-1.89535 0.1059,-2.46656 -0.90755,-0.42606 -1.97222,-0.2393 -2.94643,-0.26816 -1.20395,-0.0461 -1.55052,1.4079 -1.14885,2.31315 0.70751,0.93057 2.18418,0.55575 3.2199,0.58884 0.26048,-0.0345 0.51871,-0.0886 0.76948,-0.16727 z"
         style="stroke-width:0.85045433;stroke-miterlimit:4;stroke-dasharray:none;fill:#ffffff;fill-opacity:1;stroke:#000000;stroke-linecap:round;stroke-linejoin:round;stroke-opacity:1"
         transform="matrix(1.1758421,0,0,1.1758421,-906.14042,-219.04851)" />
      <path
         inkscape:connector-curvature="0"
         id="path4103"
         d="m 837.19952,497.4858 c -1.25771,-0.17732 -2.53727,-1.17628 -2.36503,-2.56346 -0.4327,-1.22316 0.13111,-2.77423 1.64826,-2.35813 1.63779,-0.31979 1.00257,1.61167 1.97522,2.17973 1.10432,0.36097 3.32811,0.40796 2.80806,-1.35945 -0.39114,-1.45464 -2.21709,-1.50763 -3.40244,-1.92707 -1.41591,-0.19186 -2.60298,-1.22132 -2.75901,-2.66957 -0.30817,-1.37653 -0.47216,-3.0488 0.44259,-4.22578 1.16068,-1.19908 2.90328,-0.77231 4.37788,-0.93106 1.19678,-0.38109 2.45218,-0.22429 3.58092,0.31381 1.23815,0.3938 1.55055,1.71799 1.30541,2.85394 0.25602,1.70032 -1.81473,1.00904 -2.79693,1.15186 -1.34631,0.0998 -0.22912,-2.67302 -2.14334,-2.10812 -1.41251,-0.22511 -2.35033,1.26292 -1.56201,2.4468 0.81256,1.29385 2.56505,1.38283 3.88136,1.88229 1.06244,0.34118 2.37563,0.79372 2.88355,1.87705 0.42065,1.57491 0.4983,3.52235 -0.61649,4.82808 -1.40819,1.15398 -3.35138,0.60204 -5.01283,0.7599 -0.75037,-0.003 -1.50282,-0.0353 -2.24517,-0.15082 z"
         style="stroke-width:0.85045433;stroke-miterlimit:4;stroke-dasharray:none;fill:#ffffff;fill-opacity:1;stroke:#000000;stroke-linecap:round;stroke-linejoin:round;stroke-opacity:1"
         transform="matrix(1.1758421,0,0,1.1758421,-906.14042,-219.04851)" />
      <path
         inkscape:connector-curvature="0"
         id="path4105"
         d="m 852.4857,498.06753 c -1.57562,-0.0311 -3.32235,-0.72597 -3.75279,-2.40726 -0.63295,-2.07627 -0.14609,-4.27917 -0.34955,-6.4021 -0.76182,-0.74952 -3.00464,0.30003 -2.77962,-1.84006 -0.66131,-2.46077 2.85405,-0.20696 2.81181,-2.19051 0.0276,-1.64886 -0.34257,-3.26132 -0.32877,-4.90898 -0.47904,-1.90055 1.47402,-2.55026 2.98643,-2.49334 2.15674,-0.11536 1.14345,2.5138 1.30821,3.84583 0.38601,1.35931 -0.94154,3.93805 0.75112,4.33758 1.44009,-0.22121 4.55828,-0.90889 4.02732,1.5558 -0.0948,1.97948 -2.34527,1.3397 -3.65693,1.29904 -2.44444,-0.25855 -1.13767,3.11922 -1.43005,4.62047 -0.64417,1.70178 2.06805,2.8156 2.79612,1.29145 -0.21768,-2.36133 3.55386,-2.39733 3.08055,-0.033 0.0662,1.59707 -1.04919,3.156 -2.71499,3.26597 -0.90729,0.15438 -1.84256,0.36473 -2.74886,0.0591 z"
         style="stroke-width:0.85045433;stroke-miterlimit:4;stroke-dasharray:none;fill:#ffffff;fill-opacity:1;stroke:#000000;stroke-linecap:round;stroke-linejoin:round;stroke-opacity:1"
         transform="matrix(1.1758421,0,0,1.1758421,-906.14042,-219.04851)" />
      <path
         inkscape:connector-curvature="0"
         id="path4107"
         d="m 859.32808,496.6859 c -0.34376,-1.08502 -0.24774,-2.22918 -0.51273,-3.3194 -0.0299,-1.1035 -0.17564,-2.17777 -0.33583,-3.26471 0.0365,-1.72225 -0.60635,-3.41089 -0.27714,-5.13685 0.91047,-0.52065 1.99497,-0.10865 2.97877,-0.29858 1.38721,-0.40304 0.56555,1.99257 2.05319,1.30775 1.21682,-0.42464 2.63647,-0.61195 3.8515,-0.0847 1.36387,0.79693 0.78049,2.63809 0.85115,3.93618 0.32362,1.52284 -1.65763,1.62047 -2.64274,1.33786 -1.04943,-0.65206 0.19808,-2.29847 -1.08147,-2.7475 -1.03718,-0.49255 -2.32775,0.35116 -2.09131,1.53239 -0.0308,1.70407 -0.14192,3.42289 0.23909,5.10015 0.21374,1.09828 0.0712,2.7418 -1.49751,2.29391 -0.54361,-0.17798 -1.86927,0.45437 -1.53497,-0.65652 z"
         style="stroke-width:0.85045433;stroke-miterlimit:4;stroke-dasharray:none;fill:#ffffff;fill-opacity:1;stroke:#000000;stroke-linecap:round;stroke-linejoin:round;stroke-opacity:1"
         transform="matrix(1.1758421,0,0,1.1758421,-906.14042,-219.04851)" />
      <path
         inkscape:connector-curvature="0"
         id="path4109"
         d="m 872.28493,497.4858 c -1.25008,-0.21108 -1.97091,-1.44984 -1.98013,-2.64358 -0.0349,-1.27161 -0.39891,-2.95223 0.81759,-3.80126 1.78486,-1.15073 4.01259,-0.42667 5.98659,-0.78806 0.81754,-0.88376 0.35294,-2.33888 -0.15111,-3.25419 -1.12366,-0.53984 -2.51255,-0.20545 -3.73006,-0.23894 -1.54241,0.10179 -0.58868,2.54201 -2.29769,2.227 -1.56107,0.46699 -2.13147,-0.92865 -1.80907,-2.2551 -0.13843,-1.15158 0.50686,-2.50575 1.79466,-2.56447 2.45147,-0.34661 4.9437,-0.19029 7.41149,-0.14878 1.66287,-0.019 3.21686,1.29493 3.14257,3.01868 0.34818,1.59588 0.22919,3.22559 0.36469,4.84337 0.30461,1.6341 0.44471,3.53022 -0.51335,4.98747 -1.27826,1.23549 -3.21179,0.55893 -4.79299,0.75986 -1.41506,0.0119 -2.83573,0.0291 -4.24319,-0.142 z m 6.19769,-2.24386 c 0.37939,-1.00568 0.44927,-2.81499 -0.98738,-2.9229 -1.0643,-0.0619 -2.7539,-0.36258 -3.24859,0.86212 -0.33428,1.24024 0.59779,2.65321 1.98787,2.29145 0.73989,-0.14442 1.55153,0.0645 2.2481,-0.23067 z"
         style="stroke-width:0.85045433;stroke-miterlimit:4;stroke-dasharray:none;fill:#ffffff;fill-opacity:1;stroke:#000000;stroke-linecap:round;stroke-linejoin:round;stroke-opacity:1"
         transform="matrix(1.1758421,0,0,1.1758421,-906.14042,-219.04851)" />
      <path
         inkscape:connector-curvature="0"
         id="path4111"
         d="m 883.96886,497.15857 c -1.12416,-7.95064 -1.10342,-15.99857 -1.36215,-24.00963 0.45456,-1.3772 3.84396,-1.55912 4.08809,0.0605 0.0281,7.64334 0.26202,15.30192 0.37068,22.95153 0.20868,1.81461 -2.09428,1.13662 -3.09662,0.99764 z"
         style="stroke-width:0.85045433;stroke-miterlimit:4;stroke-dasharray:none;fill:#ffffff;fill-opacity:1;stroke:#000000;stroke-linecap:round;stroke-linejoin:round;stroke-opacity:1"
         transform="matrix(1.1758421,0,0,1.1758421,-906.14042,-219.04851)" />
      <path
         inkscape:connector-curvature="0"
         id="path4113"
         d="m 832.29783,518.9537 c -1.53415,-0.16181 -2.98871,-1.45986 -2.69474,-3.11064 -0.29201,-1.95804 2.08757,-1.93911 3.32101,-1.33657 0.45075,1.00302 0.788,2.3589 2.34757,1.93041 1.40533,0.0309 3.49648,-0.10489 3.19675,-2.0745 0.0245,-1.70832 -2.15559,-1.56798 -3.35929,-1.58779 -1.9238,0.0678 -4.39964,-0.77719 -4.631,-2.98417 -0.0184,-2.09413 -0.0923,-4.21529 0.20065,-6.29666 0.28944,-1.75417 2.12439,-2.7286 3.78188,-2.70228 2.17436,-0.24977 4.73707,-0.67584 6.57872,0.7989 1.10034,1.34967 0.45097,3.22134 0.59138,4.79876 -0.10211,3.3544 -0.23279,6.72072 -0.61502,10.05309 -0.56606,2.17409 -3.01027,2.90075 -5.0125,2.70242 -1.23753,0.0104 -2.475,-0.0604 -3.70541,-0.19097 z m 4.8037,-8.39378 c 1.07791,-1.08727 0.49017,-2.78303 0.69808,-4.14397 0.46946,-1.53916 -0.1381,-3.84775 -2.17195,-3.24332 -2.14444,0.20574 -1.55792,2.85597 -1.74822,4.3498 -0.37491,1.67775 0.38558,3.65239 2.4116,3.15733 0.27234,-0.0228 0.54297,-0.0646 0.81049,-0.11984 z"
         style="stroke-width:0.85045433;stroke-miterlimit:4;stroke-dasharray:none;fill:#ffffff;fill-opacity:1;stroke:#000000;stroke-linecap:round;stroke-linejoin:round;stroke-opacity:1"
         transform="matrix(1.1758421,0,0,1.1758421,-906.14042,-219.04851)" />
      <path
         inkscape:connector-curvature="0"
         id="path4115"
         d="m 844.76981,513.19274 c -1.16508,-0.38949 -1.76221,-1.46719 -1.57697,-2.66483 0.004,-2.26913 0.002,-4.55005 0.23638,-6.80748 0.15852,-1.46431 1.78708,-2.24239 3.11784,-2.15222 1.68012,-0.1451 3.32517,0.14059 4.97928,0.26612 1.3983,-0.14808 3.19235,0.69659 3.23062,2.27037 0.0403,2.20775 0.17408,4.44436 -0.093,6.63453 -0.40813,1.38951 -1.88958,2.08794 -3.25472,2.03951 -1.33464,0.48198 -2.79386,0.0675 -4.12403,0.52436 -0.83778,0.04 -1.69455,0.10628 -2.51544,-0.11036 z m 6.58762,-2.79276 c 1.21185,-0.33971 1.12598,-1.80212 1.0956,-2.79768 0.25734,-1.26369 0.0524,-3.18069 -1.67562,-2.96334 -1.02326,0.0917 -2.67713,-0.43281 -3.13663,0.81526 -0.34673,1.44711 -0.59241,2.98837 -0.25603,4.45801 0.82213,1.33015 2.73792,0.5679 3.97268,0.48775 z"
         style="stroke-width:0.85045433;stroke-miterlimit:4;stroke-dasharray:none;fill:#ffffff;fill-opacity:1;stroke:#000000;stroke-linecap:round;stroke-linejoin:round;stroke-opacity:1"
         transform="matrix(1.1758421,0,0,1.1758421,-906.14042,-219.04851)" />
      <path
         sodipodi:nodetypes="cccccccccccccccccccc"
         inkscape:connector-curvature="0"
         id="path4117"
         d="m 861.18426,513.96341 c -1.34087,-0.0281 -2.75212,-0.12525 -3.95866,-0.75709 -1.21433,-0.81016 -1.42677,-2.4463 -1.14989,-3.775 0.16187,-2.00095 0.0783,-4.05921 0.72831,-5.98605 0.73946,-1.51197 2.58656,-1.88168 4.11767,-1.8896 0.82905,-0.0101 1.65679,-0.0771 2.4857,0.0285 0.56768,0.0158 1.77653,0.0903 1.59618,-0.76909 -0.0718,-1.40386 -0.47612,-2.78811 -0.34766,-4.20119 1.03359,-0.75878 2.35503,-0.20417 3.51972,-0.36651 0.93043,-0.0303 0.91029,1.09427 0.7649,1.73715 -0.19831,0.86552 -0.0465,1.7387 -0.12517,2.61318 -0.15326,3.98338 -0.19901,7.98046 -0.65223,11.94373 -0.27638,1.17027 -1.64568,1.62179 -2.7221,1.47271 -1.41893,-0.0151 -2.83827,-0.009 -4.25677,-0.0508 z m 4.54504,-9.11633 c -1.14294,-0.63828 -3.06678,-0.73573 -4.16581,-0.33488 -1.3746,1.43734 -1.54135,4.3286 -1.01408,5.94313 1.2509,1.22266 3.86127,1.55767 4.94637,0.51355 0.33354,-1.66555 1.07216,-4.85531 0.23352,-6.1218 z"
         style="stroke-width:0.85045433;stroke-miterlimit:4;stroke-dasharray:none;fill:#ffffff;fill-opacity:1;stroke:#000000;stroke-linecap:round;stroke-linejoin:round;stroke-opacity:1"
         transform="matrix(1.1758421,0,0,1.1758421,-906.14042,-219.04851)" />
      <path
         inkscape:connector-curvature="0"
         id="path4119"
         d="m 871.84819,513.48362 c -1.36742,-0.38107 -2.0538,-1.86319 -1.90886,-3.19926 -0.39124,-1.60727 1.21647,-2.17214 2.44866,-1.51443 1.12349,0.12735 0.14541,2.22296 1.71831,2.28407 1.12916,0.34718 3.1246,-0.32825 2.39569,-1.81409 -0.94463,-1.38883 -2.82412,-1.31319 -4.20717,-2.0092 -1.56524,-0.38951 -2.05658,-1.94193 -2.20215,-3.36154 -0.42108,-1.48778 0.14155,-3.4262 1.7745,-3.87171 1.7231,-0.37361 3.53547,-0.42671 5.29722,-0.36052 1.39314,0.0579 3.068,1.14938 2.83027,2.71351 0.38422,1.37483 -0.91262,2.14429 -2.11455,1.82072 -2.08788,0.61126 -0.69076,-2.64517 -2.68806,-2.32521 -1.34047,-0.24645 -2.29234,1.08677 -1.88952,2.3107 0.49977,1.4366 2.27808,1.44707 3.4667,1.97633 1.0678,0.53439 2.64213,0.51185 3.16677,1.77713 0.11401,1.40806 0.10061,2.865 -0.0267,4.28301 -0.096,1.32688 -1.68978,1.43947 -2.71749,1.41018 -1.77623,0.0155 -3.58599,0.11136 -5.34358,-0.11969 z"
         style="stroke-width:0.85045433;stroke-miterlimit:4;stroke-dasharray:none;fill:#ffffff;fill-opacity:1;stroke:#000000;stroke-linecap:round;stroke-linejoin:round;stroke-opacity:1"
         transform="matrix(1.1758421,0,0,1.1758421,-906.14042,-219.04851)" />
      <g
         transform="matrix(0.73666317,0,0,0.73666317,-72.099366,47.049585)"
         id="g4196"
         style="stroke-width:1.35747251;stroke-miterlimit:4;stroke-dasharray:none">
        <path
           inkscape:transform-center-y="-1.1842867"
           transform="matrix(-0.90070869,0,0,0.90070869,412.20479,292.87805)"
           d="m 231.93087,57.767926 c -0.63767,1.104461 -8.47179,1.104461 -9.10945,0 -0.63766,-1.104462 3.2794,-7.889009 4.55472,-7.889009 1.27533,0 5.19239,6.784548 4.55473,7.889009 z"
           inkscape:randomized="0"
           inkscape:rounded="0.14"
           inkscape:flatsided="true"
           sodipodi:arg2="1.5707963"
           sodipodi:arg1="0.52359878"
           sodipodi:r2="2.6296697"
           sodipodi:r1="5.2593393"
           sodipodi:cy="55.138256"
           sodipodi:cx="227.37614"
           sodipodi:sides="3"
           id="path4192"
           style="fill:#cccccc;fill-opacity:1;stroke:none;stroke-width:1.50711603;stroke-miterlimit:4;stroke-dasharray:none"
           sodipodi:type="star" />
      </g>
      <use
         height="765"
         width="1260"
         transform="matrix(1,0,0,-1,-0.09967772,640.47834)"
         id="use4199"
         xlink:href="#g4196"
         y="0"
         x="0"
         style="stroke-width:1;stroke-miterlimit:4;stroke-dasharray:none" />
      <use
         x="0"
         y="0"
         xlink:href="#g4196"
         id="use4201"
         transform="matrix(0,1,1,0,-240.19529,239.71625)"
         width="1260"
         height="765"
         style="stroke-width:1;stroke-miterlimit:4;stroke-dasharray:none" />
      <use
         height="765"
         width="1260"
         transform="matrix(0,1,-1,0,401.77134,239.71625)"
         id="use4203"
         xlink:href="#g4196"
         y="0"
         x="0"
         style="stroke-width:1;stroke-miterlimit:4;stroke-dasharray:none" />
    </g>
  </g>
</svg>
